<?xml version="1.0" encoding="UTF-8" standalone="no"?>
<!-- Created with Inkscape (http://www.inkscape.org/) -->

<svg
   width="210mm"
   height="297mm"
   viewBox="0 0 210 297"
   version="1.1"
   id="svg8635"
   inkscape:version="1.1.2 (0a00cf5339, 2022-02-04, custom)"
   sodipodi:docname="keynzleV6.svg"
   xmlns:inkscape="http://www.inkscape.org/namespaces/inkscape"
   xmlns:sodipodi="http://sodipodi.sourceforge.net/DTD/sodipodi-0.dtd"
   xmlns="http://www.w3.org/2000/svg"
   xmlns:svg="http://www.w3.org/2000/svg">
  <sodipodi:namedview
     id="namedview8637"
     pagecolor="#ffffff"
     bordercolor="#666666"
     borderopacity="1.0"
     inkscape:pageshadow="2"
     inkscape:pageopacity="0.0"
     inkscape:pagecheckerboard="0"
     inkscape:document-units="mm"
     showgrid="false"
     inkscape:zoom="0.46235269"
     inkscape:cx="383.90606"
     inkscape:cy="601.27259"
     inkscape:window-width="1366"
     inkscape:window-height="705"
     inkscape:window-x="-8"
     inkscape:window-y="-8"
     inkscape:window-maximized="1"
     inkscape:current-layer="layer1" />
  <defs
     id="defs8632" />
  <g
     inkscape:label="Ebene 1"
     inkscape:groupmode="layer"
     id="layer1">
    <g
       id="g25295"
       transform="translate(0.57225428,14.878613)">
      <path
         d="m 211.97833,105.42875 c 3.62104,0.001 6.55567,2.92795 6.5547,6.53757 l 0.1345,28.6441 H 233.263 v -27.56303 c -8.7443,0 -8.7443,-13.075119 0,-13.075119 l 15.20404,0.01774 c 4.8687,0 7.5985,-3.934564 7.5985,-8.787942 0,-4.853361 -2.7298,-8.787923 -7.5985,-8.787923 L 123.2715,82.482986 C 119.75094,71.836265 109.96579,64.027126 98.264628,63.392233 97.468503,48.713954 85.201249,36.968497 70.278483,36.968497 v 20.563347 c 7.75209,0 14.036424,6.264549 14.036424,13.992253 0,3.065104 -0.824424,6.059666 -2.501578,8.362917 9.279873,-6.709623 22.277331,-0.100597 22.277331,11.32659 0,11.427226 -12.997458,18.036176 -22.277331,11.326596 1.677154,2.30674 2.501578,5.30128 2.501578,8.36461 -0.08634,7.66594 -6.344909,13.83515 -14.035538,13.83515 -7.690647,0 -13.949203,-6.16921 -14.035537,-13.83515 0,-3.06333 0.824423,-6.05964 2.501576,-8.36461 -9.279892,6.70958 -22.277347,0.1006 -22.277347,-11.326596 0,-11.42724 12.997455,-18.036213 22.277347,-11.32659 -1.675384,-2.305007 -2.501576,-5.297813 -2.501576,-8.362917 0,-7.727012 6.283235,-13.991278 14.034651,-13.992253 v -20.56527 c -14.922764,0 -27.174114,11.74369 -27.970232,26.421969 -14.737008,0.777732 -26.447003,12.939397 -26.447003,27.824014 0,14.884603 11.78784,27.393623 26.524845,28.173133 0.935879,14.54424 15.151711,26.11756 27.89239,26.05162 12.763751,-0.0662 26.87334,-11.71195 27.669464,-26.38669 11.817923,-0.50792 21.730463,-8.33115 25.304133,-19.03779 l 67.4417,-0.04063 c 3.62104,9.58e-4 6.55567,2.92796 6.55468,6.53757 0.001,3.60962 -2.93364,6.53659 -6.55468,6.53756 v 27.56304 h 14.59547 l 0.13088,-28.64411 c -0.001,-3.61099 2.93581,-6.53854 6.55823,-6.53757 0,0 -3.62499,0 0,0 z"
         fill-rule="evenodd"
         clip-rule="evenodd"
         id="path29"
         sodipodi:nodetypes="cccccccscccccscsccsccscscccscacccccccccc"
         style="fill:#535d6c;fill-opacity:1;stroke-width:1.76636" />
      <text
         xml:space="preserve"
         style="font-style:normal;font-weight:normal;font-size:46.0097px;line-height:1.25;font-family:sans-serif;white-space:pre;inline-size:97.4234;fill:#000000;fill-opacity:1;stroke:none;stroke-width:1.15024"
         x="-178.06689"
         y="-5.3300872"
         id="text27340-1-3"
         transform="matrix(-0.00259586,-2.2110219,1.8315927,-0.01055693,17.902555,-160.45815)"><tspan
           x="-178.06689"
           y="-5.3300872"
           id="tspan25337"><tspan
             style="font-family:serif;-inkscape-font-specification:serif"
             id="tspan25335">KEY</tspan></tspan></text>
      <text
         xml:space="preserve"
         style="font-size:102.463px;line-height:1.25;font-family:sans-serif;stroke-width:0.192115"
         x="8.891077"
         y="229.24188"
         id="text118921"
         transform="scale(1.0165977,0.98367329)"><tspan
           sodipodi:role="line"
           id="tspan118919"
           style="font-style:normal;font-variant:normal;font-weight:normal;font-stretch:normal;font-family:serif;-inkscape-font-specification:serif;stroke-width:0.192115"
           x="8.891077"
           y="229.24188">NZLE</tspan></text>
    </g>
    <rect
       style="fill:#241c1c;fill-opacity:0;stroke-width:0.264583"
       id="rect8740"
       width="380.54913"
       height="235.19653"
       x="-90.988434"
       y="-40.0578" />
    <rect
       style="fill:#241c1c;fill-opacity:0;stroke-width:0.264583"
       id="rect8764"
       width="368.5318"
       height="186.5549"
       x="-90.988426"
       y="-40.0578" />
    <rect
       style="fill:#241c1c;fill-opacity:0;stroke-width:0.264583"
       id="rect9683"
       width="133.33527"
       height="60.086708"
       x="-128.75722"
       y="-44.635838" />
    <rect
       style="fill:#000000;fill-opacity:0;stroke-width:0.264583"
       id="rect9685"
       width="73.820793"
       height="48.641617"
       x="-90.988419"
       y="-40.0578" />
    <rect
       style="fill:#000000;fill-opacity:0;stroke-width:0.264583"
       id="rect23110"
       width="103.57803"
       height="66.3815"
       x="-194.56647"
       y="-28.040461" />
  </g>
</svg>
